<svg xmlns="http://www.w3.org/2000/svg" width="440" height="300" viewBox="0 0 220 150">
  <rect width="220" height="150" fill="#e8f0fe"/>
  <ellipse cx="108" cy="126" rx="92" ry="11" fill="#dae6fb"/>

  <!-- laptop -->
  <rect x="36" y="46" width="118" height="72" rx="7" fill="#1d3a6b"/>
  <rect x="42" y="52" width="106" height="60" rx="3" fill="#cfe0fa"/>
  <rect x="20" y="118" width="150" height="9" rx="4.5" fill="#2b5595"/>
  <rect x="82" y="118" width="26" height="4" rx="2" fill="#1d3a6b"/>

  <!-- profile card -->
  <rect x="64" y="22" width="88" height="76" rx="7" fill="#ffffff"/>
  <rect x="64.5" y="22.5" width="87" height="75" rx="6.5" fill="none" stroke="#dbe7fb"/>
  <circle cx="108" cy="44" r="13" fill="#e4eefd"/>
  <circle cx="108" cy="40" r="4.6" fill="#1e50c8"/>
  <path d="M100 51.5a8 8 0 0 1 16 0z" fill="#1e50c8"/>
  <rect x="78" y="64" width="60" height="4.5" rx="2.2" fill="#c9dcf8"/>
  <rect x="78" y="73" width="60" height="4.5" rx="2.2" fill="#dfeafb"/>
  <rect x="78" y="82" width="38" height="4.5" rx="2.2" fill="#dfeafb"/>

  <!-- approved badge -->
  <circle cx="146" cy="90" r="11.5" fill="#ffffff"/>
  <circle cx="146" cy="90" r="9.5" fill="#22a06b"/>
  <path d="M141.6 90.2l3 3 5.8-6" fill="none" stroke="#ffffff" stroke-width="2.1" stroke-linecap="round" stroke-linejoin="round"/>

  <!-- plant -->
  <path d="M189 68c-7 7-8 16-3 23 6-4 7-14 3-23z" fill="#45b87c"/>
  <path d="M179 80c-6 5-7 13-2 19 6-3 7-12 2-19z" fill="#2f8f5b"/>
  <path d="M198 80c6 5 7 13 2 19-6-3-7-12-2-19z" fill="#3aa76d"/>
  <rect x="188" y="86" width="2" height="18" rx="1" fill="#2f8f5b"/>
  <path d="M177 106h25l-2.4 17.6a3.4 3.4 0 0 1-3.4 3h-13.4a3.4 3.4 0 0 1-3.4-3z" fill="#ffffff" stroke="#dbe7fb" stroke-width="0.9"/>
  <rect x="174" y="100.5" width="31" height="7" rx="3.5" fill="#f7faff" stroke="#dbe7fb" stroke-width="0.9"/>
</svg>
